<?xml version="1.0" encoding="UTF-8"?>
<svg id="Capa_1" data-name="Capa 1" xmlns="http://www.w3.org/2000/svg" viewBox="0 0 98.29 98.29">
  <defs>
    <style>
      .cls-1 {
        fill: #00ccbf;
      }

      .cls-2 {
        fill: #fff;
      }

      .cls-3 {
        fill: #747e7e;
      }
    </style>
  </defs>
  <circle class="cls-3" cx="49.15" cy="49.15" r="49.15"/>
  <g>
    <g>
      <path class="cls-2" d="m26.79,69.09c-3.07,0-5.82-.53-8.25-1.58-2.43-1.06-4.52-2.52-6.28-4.38-1.76-1.86-3.11-3.99-4.05-6.37-.94-2.38-1.41-4.92-1.41-7.62s.47-5.25,1.41-7.65c.94-2.4,2.29-4.53,4.05-6.37,1.76-1.84,3.86-3.29,6.32-4.34,2.45-1.05,5.19-1.58,8.21-1.58s5.76.53,8.21,1.58c2.45,1.06,4.56,2.5,6.31,4.34,1.76,1.84,3.11,3.96,4.05,6.37.94,2.41,1.41,4.96,1.41,7.65s-.47,5.24-1.41,7.62c-.94,2.38-2.29,4.5-4.05,6.37-1.76,1.86-3.86,3.32-6.31,4.38-2.45,1.05-5.19,1.58-8.21,1.58Zm-11.59-19.87c0,2.44.52,4.64,1.56,6.59,1.04,1.95,2.43,3.49,4.16,4.62,1.73,1.12,3.69,1.68,5.87,1.68s4.07-.57,5.83-1.72c1.76-1.15,3.16-2.71,4.2-4.69,1.04-1.98,1.56-4.16,1.56-6.56s-.52-4.64-1.56-6.59c-1.04-1.95-2.44-3.5-4.2-4.65-1.76-1.15-3.7-1.72-5.83-1.72s-4.14.59-5.87,1.76c-1.73,1.17-3.12,2.72-4.16,4.65-1.04,1.93-1.56,4.14-1.56,6.63Z"/>
      <path class="cls-2" d="m71.51,69.09c-3.07,0-5.82-.53-8.25-1.58-2.43-1.06-4.52-2.52-6.28-4.38-1.76-1.86-3.11-3.99-4.05-6.37-.94-2.38-1.41-4.92-1.41-7.62s.47-5.25,1.41-7.65c.94-2.4,2.29-4.53,4.05-6.37,1.76-1.84,3.86-3.29,6.32-4.34,2.45-1.05,5.19-1.58,8.21-1.58s5.76.53,8.21,1.58c2.45,1.06,4.56,2.5,6.31,4.34,1.76,1.84,3.11,3.96,4.05,6.37.94,2.41,1.41,4.96,1.41,7.65s-.47,5.24-1.41,7.62c-.94,2.38-2.29,4.5-4.05,6.37-1.76,1.86-3.86,3.32-6.31,4.38-2.45,1.05-5.19,1.58-8.21,1.58Zm-11.59-19.87c0,2.44.52,4.64,1.56,6.59,1.04,1.95,2.43,3.49,4.16,4.62,1.73,1.12,3.69,1.68,5.87,1.68s4.07-.57,5.83-1.72c1.76-1.15,3.16-2.71,4.2-4.69,1.04-1.98,1.56-4.16,1.56-6.56s-.52-4.64-1.56-6.59c-1.04-1.95-2.44-3.5-4.2-4.65-1.76-1.15-3.7-1.72-5.83-1.72s-4.14.59-5.87,1.76c-1.73,1.17-3.12,2.72-4.16,4.65s-1.56,4.14-1.56,6.63Z"/>
    </g>
    <path class="cls-1" d="m69.18,43.38c0,1.24.24,2.32.72,3.25.48.93,1.12,1.66,1.93,2.17.81.51,1.74.77,2.79.77s1.95-.26,2.77-.79c.82-.53,1.47-1.26,1.93-2.19.47-.93.7-2,.7-3.21s-.23-2.32-.7-3.25c-.47-.93-1.11-1.66-1.93-2.17-.82-.51-1.74-.77-2.77-.77s-1.99.26-2.79.77c-.81.51-1.45,1.23-1.93,2.17-.48.93-.72,2.02-.72,3.25Z"/>
    <path class="cls-1" d="m24.45,43.38c0,1.24.24,2.32.72,3.25.48.93,1.12,1.66,1.93,2.17.81.51,1.74.77,2.79.77s1.95-.26,2.77-.79c.82-.53,1.47-1.26,1.93-2.19.47-.93.7-2,.7-3.21s-.23-2.32-.7-3.25c-.47-.93-1.11-1.66-1.93-2.17-.82-.51-1.74-.77-2.77-.77s-1.99.26-2.79.77c-.81.51-1.45,1.23-1.93,2.17-.48.93-.72,2.02-.72,3.25Z"/>
  </g>
</svg>